About:

A freak accident brings together a critically ill mathematician, a grieving mother and a born-again ex-con.



General
Complete name                            : 21 Grams [2003] BRRip XviD - CODY.avi
Format                                   : AVI
File size                                : 1 003 MiB
Duration                                 : 2h 4mn
Overall bit rate                         : 1 127 Kbps
Writing library                          : VirtualDubMod build 2550/release

Video
ID                                       : 0
Format                                   : MPEG-4 Visual
Format profile                           : Advanced Simple@L5
Format settings, BVOP                    : 4
Format settings, QPel                    : No
Format settings, GMC                     : No warppoints
Format settings, Matrix                  : Default (H.263)
Codec ID                                 : XVID
Codec ID/Hint                            : XviD
Duration                                 : 2h 4mn
Bit rate                                 : 989 Kbps
Width                                    : 720 pixels
Height                                   : 392 pixels
Display aspect ratio                     : 16:9
Compression mode                         : Lossy
Bits/(Pixel*Frame)                       : 0.146
Stream size                              : 881 MiB (88%)

Audio
ID                                       : 1
Format                                   : MPEG Audio
Format version                           : Version 1
Format profile                           : Layer 3
Codec ID                                 : 55
Codec ID/Hint                            : MP3
Duration                                 : 2h 4mn
Bit rate mode                            : Constant
Bit rate                                 : 128 Kbps
Channel(s)                               : 2 channels
Sampling rate                            : 48.0 KHz
Compression mode                         : Lossy
Stream size                              : 114 MiB (11%)
Writing library                          : L3.99r


IMDB link:                                 http://www.imdb.com/title/tt0315733/


Subtitles included: Arabic, Czech, Danish, English, Farsi, Frrench, Hungarian, Indonesian, Romanian, Russian, Spanish


Please seed at least 1,5:1 . This way this torrent has a chance to survive !


Thanks . Enjoy !!!

__________________

*** The original Blu-Ray has parts of "fuzzy"/grainy image. I kept them as in originall. [ Read on]

